<svg width="18" height="130" viewBox="0 0 18 130" fill="none" xmlns="http://www.w3.org/2000/svg">
<path d="M10.8714 103.404V25.0691C10.8328 21.0649 12.3238 17.2014 15.0309 14.2913C16.1682 13.1034 16.9368 11.602 17.2411 9.97376C17.5454 8.34553 17.372 6.66233 16.7424 5.13346C16.1128 3.6046 15.0548 2.29751 13.7 1.37477C12.3452 0.452018 10.7534 -0.0456911 9.1224 -0.056462C7.49144 -0.067233 5.89333 0.409414 4.52683 1.31419C3.16033 2.21897 2.08573 3.51196 1.43663 5.03239C0.787532 6.55281 0.592566 8.23358 0.876019 9.86569C1.15947 11.4978 1.90884 13.0092 3.03089 14.212C5.71859 17.0557 7.23456 20.836 7.2683 24.7786V103.066C7.28512 105.156 6.89089 107.229 6.10877 109.162C5.32665 111.096 4.17239 112.851 2.71371 114.325C1.43238 115.594 0.55268 117.223 0.186977 119.003C-0.178726 120.784 -0.0138228 122.634 0.66064 124.319C1.3351 126.003 2.48849 127.445 3.97342 128.46C5.45835 129.475 7.2074 130.018 8.99708 130.018C10.7868 130.018 12.5358 129.475 14.0207 128.46C15.5057 127.445 16.6591 126.003 17.3335 124.319C18.008 122.634 18.1729 120.784 17.8072 119.003C17.4415 117.223 16.5618 115.594 15.2805 114.325C13.8667 112.895 12.7485 111.192 11.9913 109.317C11.2342 107.441 10.8534 105.431 10.8714 103.404ZM4.37229 8.43744C4.37229 7.497 4.64673 6.57767 5.16091 5.79573C5.67509 5.01378 6.4059 4.40433 7.26094 4.04444C8.11598 3.68455 9.05688 3.59039 9.96459 3.77386C10.8723 3.95733 11.7061 4.41019 12.3605 5.07518C13.0149 5.74017 13.4606 6.58742 13.6411 7.50979C13.8217 8.43216 13.729 9.38821 13.3749 10.2571C13.0207 11.1259 12.4209 11.8685 11.6514 12.391C10.8819 12.9135 9.97715 13.1924 9.05166 13.1924C7.81061 13.1924 6.6204 12.6914 5.74285 11.7997C4.86529 10.908 4.37229 9.69853 4.37229 8.43744ZM8.99968 126.344C7.93059 126.346 6.88492 126.026 5.99507 125.424C5.10522 124.822 4.41121 123.965 4.0009 122.962C3.59059 121.958 3.48244 120.854 3.69013 119.788C3.89782 118.723 4.41201 117.744 5.1676 116.975C5.9232 116.207 6.88622 115.683 7.93475 115.471C8.98328 115.259 10.0701 115.368 11.0578 115.784C12.0454 116.2 12.8893 116.904 13.4827 117.808C14.0762 118.711 14.3924 119.774 14.3914 120.86C14.39 122.313 13.8217 123.706 12.811 124.734C11.8003 125.762 10.4297 126.341 8.99968 126.344Z" fill="#1A4570"/>
</svg>
