<svg width="40" height="40" viewBox="0 0 40 40" fill="none" xmlns="http://www.w3.org/2000/svg">
<g clip-path="url(#clip0_405_7288)">
<path d="M30.2629 20.4429C28.3286 20.4354 26.4355 21.002 24.8233 22.0709C23.2111 23.1398 21.9522 24.6631 21.2059 26.4479C20.4597 28.2328 20.2597 30.1989 20.6312 32.0974C21.0028 33.996 21.9291 35.7416 23.293 37.1134C24.657 38.4852 26.3972 39.4214 28.2934 39.8036C30.1896 40.1859 32.1566 39.9969 33.9453 39.2606C35.7341 38.5243 37.2642 37.2738 38.3421 35.6674C39.4199 34.061 39.997 32.1709 40.0004 30.2364C40.0055 28.9535 39.7576 27.6821 39.2708 26.4952C38.7839 25.3082 38.0677 24.229 37.1632 23.3192C36.2587 22.4095 35.1836 21.6872 33.9996 21.1936C32.8155 20.7001 31.5457 20.445 30.2629 20.4429ZM35.1412 28.2298C33.5568 30.327 31.9772 32.4266 30.3833 34.5167C29.8683 35.1915 29.1578 35.275 28.4759 34.7551C27.2281 33.8212 25.9847 32.8813 24.7457 31.9354C24.0972 31.4394 23.9672 30.6847 24.4047 30.0981C24.8566 29.4936 25.6172 29.4089 26.2931 29.9097C27.1276 30.5273 27.9621 31.1485 28.7775 31.7935C29.0291 31.9926 29.1352 31.9545 29.3188 31.7136C30.5622 30.0444 31.8223 28.3931 33.0704 26.7311C33.4281 26.2541 33.8894 26.0383 34.4676 26.1707C34.9719 26.2899 35.2842 26.6309 35.4082 27.1364C35.4247 27.212 35.4367 27.2884 35.444 27.3654C35.4426 27.6793 35.3359 27.9836 35.1412 28.2298Z" fill="#F8F6E7"/>
<path d="M2.57029 20.0995C2.5536 27.9685 8.0327 35.009 15.7447 36.9274C16.9689 37.2398 18.2248 37.4106 19.488 37.4365C19.6954 37.4365 19.9041 37.4508 20.1103 37.4723C20.8327 37.5474 21.3024 38.0839 21.275 38.7921C21.2488 39.4813 20.7147 39.9916 19.9875 39.9963C17.8417 40.0094 15.7435 39.7114 13.7323 38.9877C6.57947 36.4147 2.0374 31.4226 0.437545 23.9911C-1.7262 13.9377 4.33585 3.8784 14.1853 0.872649C25.1042 -2.45979 36.6358 4.06202 39.404 15.1348C39.7903 16.6626 39.9905 18.2315 40 19.8073C40 20.6789 39.5399 21.2381 38.7912 21.2703C38.0068 21.2977 37.4798 20.7791 37.4596 19.8777C37.4143 17.6577 37.0507 15.4996 36.1709 13.4572C33.6888 7.6973 29.3959 4.05725 23.2289 2.88761C14.1233 1.16118 5.51011 6.69101 3.12821 15.632C2.95684 16.293 2.82389 16.9634 2.73004 17.6398C2.62574 18.4555 2.57239 19.277 2.57029 20.0995Z" fill="#F8F6E7"/>
<path d="M21.2826 14.0487C21.2826 16.5127 21.2826 18.9796 21.2826 21.4492C21.2826 22.5139 20.8272 22.9789 19.7757 22.9801C17.0735 22.9801 14.3713 22.9801 11.6691 22.9801C10.651 22.9801 10.0311 22.2206 10.297 21.3335C10.465 20.772 10.9407 20.4429 11.6322 20.4417C13.8162 20.4369 16.0018 20.4369 18.189 20.4417C18.2927 20.4417 18.3976 20.4345 18.5001 20.4417C18.6932 20.4596 18.7743 20.3797 18.7576 20.1854C18.7481 20.0828 18.7576 19.9779 18.7576 19.8742C18.7576 15.4905 18.7576 11.1065 18.7576 6.72206C18.7457 6.48524 18.7654 6.24788 18.816 6.01623C18.9011 5.73307 19.0829 5.48878 19.3297 5.32602C19.5765 5.16326 19.8726 5.09237 20.1663 5.12574C20.4601 5.1591 20.7328 5.29461 20.9368 5.50858C21.1408 5.72255 21.2632 6.0014 21.2826 6.29642C21.2945 6.45858 21.2921 6.62311 21.2921 6.78645C21.2865 9.206 21.2834 11.6267 21.2826 14.0487Z" fill="#F8F6E7"/>
</g>
<defs>
<clipPath id="clip0_405_7288">
<rect width="40" height="40" fill="white"/>
</clipPath>
</defs>
</svg>
