<svg width="40" height="40" viewBox="0 0 40 40" fill="none" xmlns="http://www.w3.org/2000/svg">
<g clip-path="url(#clip0_405_7310)">
<path d="M39.2605 21.5613C39.0907 21.9975 39.1145 22.4665 39.0469 22.9191C38.6211 25.8189 37.5742 28.5877 35.9806 31.0289C35.4758 31.8119 34.58 32.0233 33.8463 31.5519C33.1126 31.0806 32.9043 30.13 33.4153 29.3336C34.7659 27.2265 35.6725 24.9409 36.0175 22.4477C36.5807 18.3838 35.8377 14.5674 33.6811 11.0939C30.9721 6.73321 27.0737 4.13592 22.0798 3.3067C15.5493 2.22299 8.70219 5.58687 5.36548 11.4635C3.71056 14.3779 2.92305 17.5139 3.11129 20.8676C3.52156 28.1575 8.2489 34.2205 15.1305 36.2149C19.6435 37.5248 23.966 36.9196 28.0379 34.5337C28.4375 34.2988 28.8408 34.1375 29.3087 34.2455C29.6103 34.3106 29.886 34.466 30.1005 34.6917C30.315 34.9174 30.4585 35.2032 30.5126 35.5125C30.6187 36.1553 30.3367 36.7724 29.752 37.1326C27.9513 38.2456 25.9833 39.0495 23.9268 39.5122C13.7376 41.8143 3.65601 35.6981 0.760297 25.4631C-2.23607 14.8821 3.92491 3.66376 14.3407 0.726635C15.5084 0.393997 16.7043 0.175072 17.9125 0.0728092C17.9825 0.066545 18.0662 0.0947339 18.1069 -0.00549316H21.0195C21.711 0.0790734 22.4102 0.0728089 23.1001 0.199659C26.4761 0.79726 29.6358 2.29807 32.2559 4.54857C34.2663 6.24675 35.9244 8.33639 37.1331 10.6953C38.1866 12.738 38.8765 14.9548 39.1706 17.243C39.2244 17.6634 39.1936 18.0933 39.2597 18.5146L39.2605 21.5613Z" fill="#F8F6E7"/>
<path d="M33.2808 20.0188C33.2808 19.2358 33.2846 18.6094 33.2808 17.9877C33.2616 15.3591 31.3923 13.2441 28.7379 12.8448C26.4038 12.494 23.9744 14.0866 23.2476 16.4522C23.0896 16.9343 23.0099 17.4395 23.0117 17.9477C23.0425 19.4433 22.8903 20.9467 23.0824 22.4337C23.3974 24.8705 25.4718 26.763 27.8574 26.8687C30.359 26.9799 32.5594 25.3168 33.1356 22.8949C33.3745 21.8911 33.2362 20.8731 33.2808 20.0188ZM30.2137 21.6632C30.2143 22.222 29.9969 22.7582 29.6096 23.1537C29.2222 23.5492 28.6965 23.7717 28.1482 23.7723C27.5999 23.7728 27.0738 23.5513 26.6857 23.1565C26.2976 22.7617 26.0793 22.226 26.0788 21.6671C26.068 20.4445 26.068 19.2225 26.0788 18.001C26.0935 17.4523 26.3176 16.9311 26.7036 16.5483C27.0896 16.1655 27.6069 15.9513 28.1455 15.9513C28.6841 15.9513 29.2014 16.1655 29.5874 16.5483C29.9734 16.9311 30.1975 17.4523 30.2122 18.001C30.223 18.6117 30.2122 19.2225 30.2122 19.834C30.2122 20.4456 30.2222 21.0532 30.2137 21.664V21.6632Z" fill="#F8F6E7"/>
<path d="M12.3549 19.816C12.3549 18.8654 12.3549 17.9156 12.3549 16.965C12.3649 14.616 14.0843 12.8385 16.3854 12.815C17.1352 12.808 17.8905 12.7414 18.6311 12.9583C20.1377 13.3991 21.218 14.7843 21.2433 16.3316C21.2579 17.2093 20.641 17.9219 19.8266 17.9681C18.9599 18.0166 18.2715 17.4137 18.1817 16.5265C18.1386 16.1068 17.9842 15.9471 17.5785 15.9377C17.1729 15.9283 16.7603 15.9228 16.3493 15.9377C15.7884 15.9628 15.4212 16.3457 15.4189 16.9157C15.4127 18.8686 15.4127 20.8212 15.4189 22.7735C15.4189 23.3216 15.7823 23.7084 16.3231 23.7366C16.7565 23.7593 17.1921 23.757 17.6293 23.7366C17.9619 23.7225 18.1548 23.551 18.1855 23.1768C18.2623 22.2567 18.9538 21.6546 19.8389 21.7102C20.6502 21.7611 21.2602 22.4775 21.2418 23.3592C21.2049 25.1711 19.7367 26.7387 17.9028 26.8468C16.9531 26.9024 15.9897 26.9658 15.0601 26.6385C14.2867 26.3739 13.6125 25.8723 13.1294 25.2024C12.6463 24.5325 12.3779 23.7269 12.361 22.8957C12.3441 21.8675 12.361 20.8386 12.361 19.8105L12.3549 19.816Z" fill="#F8F6E7"/>
<path d="M10.4388 19.8427C10.4388 21.664 10.4442 23.4861 10.4388 25.3082C10.4401 25.6959 10.2996 26.0703 10.0448 26.3582C9.78993 26.6462 9.43898 26.8271 9.06039 26.8656C8.68179 26.9041 8.30268 26.7975 7.99701 26.5666C7.69133 26.3357 7.48101 25.9971 7.40706 25.6167C7.38245 25.4762 7.37241 25.3334 7.3771 25.1907C7.3771 21.6248 7.3771 18.0589 7.3771 14.493C7.3771 13.5143 8.0217 12.8119 8.90909 12.8119C9.79647 12.8119 10.4403 13.5166 10.4457 14.4938C10.4426 16.277 10.4403 18.06 10.4388 19.8427Z" fill="#F8F6E7"/>
</g>
<defs>
<clipPath id="clip0_405_7310">
<rect width="39.2593" height="40" fill="white"/>
</clipPath>
</defs>
</svg>
