<svg width="553" height="128" viewBox="0 0 553 128" fill="none" xmlns="http://www.w3.org/2000/svg">
<path d="M8.90509 0.0362968C10.4783 0.150298 11.9863 0.710975 13.2523 1.65252C14.5182 2.59406 15.4896 3.8774 16.0522 5.35195C16.6149 6.82649 16.7456 8.43105 16.429 9.97731C16.1124 11.5236 15.3616 12.9474 14.2647 14.0817C11.5581 16.947 10.0674 20.751 10.106 24.6937V32.1898C10.106 39.2206 12.8948 45.9639 17.8601 50.9384C22.8253 55.9128 29.5608 58.7116 36.5869 58.7199H515.717C523.689 58.7185 531.336 61.8838 536.978 67.5205C542.619 73.1573 545.795 80.8044 545.806 88.7821V101.501C545.789 103.557 546.179 105.595 546.955 107.499C547.73 109.402 548.875 111.133 550.323 112.592C551.269 113.521 551.997 114.649 552.454 115.894C552.912 117.139 553.087 118.47 552.969 119.791C552.777 121.912 551.841 123.897 550.328 125.395C548.814 126.892 546.82 127.806 544.698 127.974C543.462 128.068 542.22 127.905 541.05 127.497C539.879 127.088 538.806 126.442 537.896 125.599C536.987 124.757 536.261 123.735 535.764 122.599C535.267 121.462 535.01 120.236 535.008 118.995C535.008 117.787 535.251 116.591 535.724 115.479C536.196 114.367 536.888 113.362 537.758 112.524C539.183 111.116 540.311 109.436 541.076 107.584C541.84 105.731 542.225 103.744 542.208 101.74V88.7821C542.208 81.7504 539.419 75.0063 534.452 70.0317C529.486 65.0571 522.749 62.2589 515.722 62.252H36.5816C28.603 62.252 20.9511 59.0804 15.3094 53.4348C9.66766 47.7892 6.49823 40.1322 6.49823 32.1481V24.3452C6.46655 20.4628 4.9505 16.7399 2.26147 13.9412C1.13702 12.7215 0.403992 11.1925 0.15686 9.55159C-0.09021 7.9107 0.160034 6.23337 0.875366 4.73627C1.59064 3.23918 2.7381 1.9911 4.16949 1.15328C5.60089 0.315451 7.25043 -0.0736329 8.90509 0.0362968ZM540.607 118.995C540.61 119.897 540.969 120.76 541.606 121.398C542.243 122.035 543.106 122.395 544.007 122.397C544.908 122.396 545.772 122.037 546.409 121.399C547.047 120.762 547.405 119.897 547.407 118.995C547.407 118.093 547.048 117.228 546.411 116.59C545.773 115.952 544.909 115.593 544.007 115.593C543.106 115.595 542.242 115.953 541.604 116.591C540.967 117.229 540.608 118.093 540.607 118.995ZM8.08374 11.231C8.78082 11.231 9.46228 11.0241 10.0419 10.6366C10.6215 10.249 11.0732 9.69819 11.34 9.05372C11.6068 8.40926 11.6765 7.70011 11.5405 7.01595C11.4045 6.33179 11.0689 5.70334 10.576 5.21009C10.0831 4.71683 9.45508 4.38093 8.77136 4.24484C8.08771 4.10875 7.37897 4.17861 6.73499 4.44555C6.09094 4.7125 5.54053 5.16455 5.1532 5.74456C4.76593 6.32456 4.5592 7.00645 4.5592 7.70402C4.5592 8.63942 4.93054 9.53651 5.59149 10.1979C6.2525 10.8594 7.14899 11.231 8.08374 11.231Z" fill="#1A4570"/>
</svg>
