<svg xmlns="http://www.w3.org/2000/svg" width="158.695" height="75.185" viewBox="0 0 158.695 75.185">
  <g id="Group_2" data-name="Group 2" transform="translate(-366 -78)">
    <g id="Group_1" data-name="Group 1" transform="translate(366 78)">
      <circle id="Ellipse_1" data-name="Ellipse 1" cx="5.172" cy="5.172" r="5.172" transform="translate(41.038 2.124)" fill="#fff"/>
      <circle id="Ellipse_2" data-name="Ellipse 2" cx="7.204" cy="7.204" r="7.204" transform="translate(29.926 30.388)" fill="#fff"/>
      <circle id="Ellipse_3" data-name="Ellipse 3" cx="4.249" cy="4.249" r="4.249" transform="translate(57.82 55.511)" fill="#fff"/>
      <ellipse id="Ellipse_4" data-name="Ellipse 4" cx="3.417" cy="3.497" rx="3.417" ry="3.497" transform="translate(0 42.224)" fill="#fff"/>
      <path id="Path_1" data-name="Path 1" d="M615.319,116.595a7.357,7.357,0,0,1-1.468.813,66.512,66.512,0,0,1,3.915,23.487c0,9.7-1.713,18.813-4.822,25.65-3.015,6.629-6.944,10.28-11.065,10.28s-8.05-3.651-11.065-10.28c-3.11-6.837-4.822-15.947-4.822-25.65s1.712-18.813,4.822-25.65c3.015-6.629,6.944-10.28,11.065-10.28a7.556,7.556,0,0,1,3.527.911,7.411,7.411,0,0,1,1.266-1.194,9.322,9.322,0,0,0-4.793-1.38c-4.811,0-9.278,4-12.578,11.254-3.206,7.049-4.971,16.4-4.971,26.338s1.765,19.289,4.971,26.338c3.3,7.257,7.767,11.254,12.578,11.254s9.278-4,12.578-11.254c3.206-7.049,4.971-16.4,4.971-26.338A67.972,67.972,0,0,0,615.319,116.595Z" transform="translate(-564.841 -103.302)" fill="#fff"/>
      <path id="Path_2" data-name="Path 2" d="M549.146,204.575c-5.455-6.077-13.673-11.97-23.141-16.6-14.492-7.078-29.1-9.759-37.215-6.828a9.153,9.153,0,0,0-5.594,4.715c-1.9,4.226.143,10,5.763,16.261,5.455,6.077,13.673,11.97,23.141,16.6,9.091,4.44,18.225,7.148,25.776,7.827a6.026,6.026,0,0,1-.036-1.688q-2.06-.2-4.308-.6a81.135,81.135,0,0,1-20.7-7.046c-9.279-4.532-17.315-10.289-22.63-16.209-5.075-5.653-7.073-10.921-5.482-14.453a7.555,7.555,0,0,1,4.635-3.826c3.667-1.325,8.928-1.424,15.213-.289a81.142,81.142,0,0,1,20.7,7.046c9.279,4.532,17.315,10.288,22.629,16.209,5.074,5.653,7.073,10.921,5.482,14.453a7.074,7.074,0,0,1-3.72,3.453,6.081,6.081,0,0,1,.322,1.688,8.849,8.849,0,0,0,4.927-4.452C556.813,216.611,554.766,210.835,549.146,204.575Z" transform="translate(-481.825 -165.816)" fill="#40bf8e"/>
      <path id="Path_3" data-name="Path 3" d="M553.466,189.19c-1.934-4.123-7.586-6.127-15.914-5.643-8.069.469-17.789,3.2-27.368,7.695s-17.895,10.22-23.414,16.124q-.917.981-1.706,1.944a5.186,5.186,0,0,1,1.49.808q.669-.8,1.43-1.617c5.378-5.754,13.513-11.349,22.906-15.755s18.9-7.083,26.759-7.54q1.153-.067,2.233-.067c6.293,0,10.642,1.691,12.08,4.757,1.6,3.416-.419,8.52-5.544,14-5.379,5.754-13.514,11.349-22.906,15.755s-18.9,7.083-26.759,7.54c-7.493.436-12.711-1.274-14.313-4.69a6.1,6.1,0,0,1-.522-2.978,5.169,5.169,0,0,1-1.605-.808,8,8,0,0,0,.623,4.493c1.745,3.72,6.513,5.715,13.545,5.715q1.145,0,2.37-.071c8.069-.469,17.789-3.2,27.368-7.695s17.895-10.22,23.415-16.124C553.327,198.94,555.4,193.313,553.466,189.19Z" transform="translate(-479.971 -168.665)" fill="#0f75c9"/>
      <circle id="Ellipse_5" data-name="Ellipse 5" cx="1.663" cy="1.663" r="1.663" transform="translate(13.301 51.078)" fill="#40bf8e"/>
      <circle id="Ellipse_6" data-name="Ellipse 6" cx="1.108" cy="1.108" r="1.108" transform="translate(17.18 38.701)" fill="#40bf8e"/>
      <circle id="Ellipse_7" data-name="Ellipse 7" cx="0.739" cy="0.739" r="0.739" transform="translate(1.663 55.511)" fill="#40bf8e"/>
      <circle id="Ellipse_8" data-name="Ellipse 8" cx="1.108" cy="1.108" r="1.108" transform="translate(23.276 61.053)" fill="#40bf8e"/>
    </g>
    <text id="SGRB" transform="translate(488.695 126.214)" fill="#fff" font-size="27" font-family="SegoeUI, Segoe UI" letter-spacing="0.08em"><tspan x="-35" y="0">SGRB</tspan></text>
  </g>
</svg>
