<svg width="35" height="40" viewBox="0 0 35 40" fill="none" xmlns="http://www.w3.org/2000/svg">
<g clip-path="url(#clip0_405_7262)">
<path d="M29.5683 0C29.857 0.293358 30.0682 0.646222 30.3018 0.981339C31.7938 3.11941 33.2835 5.25747 34.7707 7.39554C34.9207 7.61164 35.088 7.82357 34.9442 8.10335C34.8003 8.38314 34.529 8.35808 34.2729 8.35704C33.6109 8.35704 32.9468 8.37896 32.2889 8.34764C31.9094 8.3299 31.7788 8.41446 31.785 8.8404C31.8105 10.9753 31.7972 13.1103 31.7962 15.2462C31.7962 15.8538 31.6993 15.9551 31.1158 15.9551C29.9325 15.9551 28.7495 15.9551 27.5669 15.9551C27.0875 15.9551 26.963 15.8225 26.962 15.3287C26.962 13.1416 26.9518 10.9545 26.9712 8.76732C26.9712 8.40611 26.8692 8.34138 26.5499 8.34973C25.8359 8.37479 25.1218 8.34973 24.4077 8.35913C24.1711 8.35913 23.9456 8.35078 23.812 8.10649C23.6784 7.8622 23.7988 7.66175 23.9365 7.46444C25.5904 5.09391 27.2436 2.72304 28.8961 0.351821C28.9818 0.228631 29.0838 0.11797 29.1787 0.0010442L29.5683 0Z" fill="#F8F6E7"/>
<path d="M33.9149 26.539C33.4507 21.8829 30.9505 18.7154 26.6968 17.0231C25.0799 16.38 23.3876 16.2569 21.6688 16.4667C21.5321 16.4834 21.3628 16.5826 21.2455 16.4197C21.0649 16.1765 20.8884 15.9301 20.6711 15.6326C21.0996 15.6326 21.477 15.6503 21.8524 15.6326C23.7906 15.5282 25.3033 13.553 24.9575 11.5965C24.6372 9.79359 23.2754 8.63896 21.4301 8.63269C18.6575 8.62538 15.8839 8.63269 13.1113 8.63269C11.0008 8.63269 8.88921 8.62225 6.77764 8.63269C4.41717 8.64731 2.78504 10.8094 3.39709 13.0894C3.5603 13.6949 3.88673 14.2086 4.31516 14.6857C3.84388 14.7097 3.42362 14.7066 3.00946 14.7556C2.20606 14.856 1.46338 15.2445 0.913268 15.8521C0.363155 16.4597 0.0411824 17.2471 0.00449707 18.0746C-0.0321882 18.9021 0.218786 19.7161 0.712876 20.3722C1.20697 21.0283 1.91222 21.484 2.70344 21.6584C3.2247 21.7774 3.75616 21.696 4.29476 21.7513C2.92888 23.8069 2.92989 25.1651 4.32944 26.8866C3.97956 26.8866 3.68883 26.8814 3.39811 26.8866C2.49149 26.8971 1.62599 27.2753 0.991605 27.9383C0.357218 28.6012 0.00580306 29.4947 0.0145086 30.4226C0.0257295 32.3623 1.52627 33.8886 3.443 33.9074C3.72658 33.9074 4.01017 33.9074 4.32639 33.9074C4.27845 33.9857 4.26824 34.0118 4.25294 34.0274C3.23286 35.1831 2.96458 36.5038 3.58581 37.9236C4.21622 39.3632 5.38421 40.0115 6.91637 40C8.43017 39.9917 9.94397 40 11.4567 40C14.7775 40 18.0971 40 21.4158 40C22.3145 40 23.1387 39.7641 23.7916 39.1273C24.1066 38.8192 24.5092 38.6218 24.9412 38.5635C30.5466 37.5624 34.4932 32.3487 33.9149 26.539ZM5.03943 10.2143C5.48424 9.79586 6.06739 9.56534 6.67156 9.56914C11.6445 9.56392 16.6163 9.55661 21.5892 9.56914C22.2002 9.56636 22.7906 9.79438 23.2474 10.2095C23.7043 10.6247 23.9954 11.1977 24.065 11.8189C24.1411 12.4517 23.985 13.0909 23.6269 13.6127C23.2689 14.1344 22.7343 14.5015 22.1268 14.6429C21.8774 14.6936 21.6229 14.7132 21.3689 14.7013H14.1202C11.6404 14.7013 9.16055 14.7076 6.68074 14.7013C6.16865 14.7047 5.66825 14.5448 5.24906 14.2438C4.82987 13.9428 4.51272 13.5156 4.34168 13.0216C4.16821 12.5362 4.14201 12.0085 4.26651 11.5076C4.39101 11.0067 4.66041 10.5559 5.03943 10.2143ZM3.4634 20.7929C2.46168 20.7929 1.69254 20.3419 1.21922 19.4441C0.762221 18.5766 0.794865 17.6882 1.31001 16.8498C1.82515 16.0115 2.61265 15.6461 3.56847 15.6451C5.34953 15.6451 7.13025 15.6451 8.91063 15.6451C11.9641 15.6451 15.0168 15.6451 18.0689 15.6451C18.9717 15.6451 19.7357 15.9322 20.3366 16.7246C19.2414 17.0263 18.1963 17.4932 17.2355 18.1099C16.2221 18.7612 15.3223 19.5812 14.5731 20.5361C14.5185 20.6206 14.4435 20.6894 14.3555 20.7356C14.2674 20.7819 14.1691 20.8041 14.0702 20.8002C10.5356 20.7919 6.999 20.7961 3.4634 20.7929ZM4.19174 24.3425C4.18523 24.0035 4.24481 23.6665 4.36699 23.3514C4.48917 23.0362 4.6715 22.7491 4.90333 22.5069C5.13516 22.2647 5.41183 22.0722 5.71719 21.9407C6.02254 21.8092 6.35046 21.7412 6.68176 21.7409C9.0055 21.7137 11.3303 21.7336 13.7264 21.7336C13.3944 22.3194 13.1046 22.9294 12.8594 23.5584C12.4966 24.5302 12.2693 25.5494 12.1841 26.586C12.1667 26.8052 12.1321 26.8939 11.8852 26.8919C10.1582 26.8783 8.43017 26.8919 6.70215 26.8793C6.3744 26.8824 6.0493 26.8191 5.74552 26.6931C5.44173 26.5672 5.16526 26.381 4.93198 26.1454C4.6987 25.9098 4.51322 25.6293 4.38619 25.32C4.25915 25.0108 4.19307 24.679 4.19174 24.3435V24.3425ZM3.42463 32.9657C2.75829 32.9632 2.1202 32.6899 1.65075 32.206C1.18129 31.722 0.918927 31.067 0.921362 30.385C0.923797 29.7031 1.19084 29.05 1.66373 28.5696C2.13663 28.0891 2.77665 27.8206 3.443 27.8231C6.2421 27.8168 9.04086 27.8168 11.8393 27.8231C12.0066 27.8231 12.1555 27.7939 12.1637 28.0632C12.2206 29.7319 12.6569 31.364 13.4378 32.83C13.4508 32.873 13.4583 32.9176 13.4602 32.9626C13.3765 32.9626 13.3051 32.973 13.2327 32.973C9.96301 32.9709 6.69365 32.9689 3.42463 32.9668V32.9657ZM21.5688 39.0584C16.6092 39.0584 11.6499 39.0584 6.69093 39.0584C6.0348 39.0573 5.40568 38.7908 4.94077 38.3169C4.47586 37.8431 4.21285 37.2003 4.20908 36.5288C4.19174 35.108 5.25466 33.9356 6.64911 33.9189C9.05242 33.8917 11.4557 33.9126 13.859 33.9032C14.0631 33.9032 14.1477 34.0076 14.2497 34.1465C15.8982 36.4213 18.0812 37.8588 20.7782 38.4873C21.3903 38.6314 22.0258 38.6857 22.745 38.7452C22.386 38.952 21.9808 39.0603 21.5688 39.0594V39.0584ZM23.5233 26.8616C23.5233 27.0652 23.5723 27.156 23.7824 27.2009C24.1921 27.2893 24.5905 27.4256 24.9698 27.607C25.7981 28.0068 26.2908 28.6624 26.4764 29.5843C26.86 31.4948 25.9093 33.1338 24.171 33.5514C23.967 33.6005 23.661 33.5023 23.5661 33.6819C23.4713 33.8615 23.5315 34.1371 23.5274 34.3709C23.5274 34.5797 23.5274 34.7885 23.5274 34.9973C23.5182 35.3001 23.3672 35.5078 23.0663 35.5068C22.7654 35.5057 22.6113 35.3126 22.6134 34.9973C22.6134 34.6069 22.5971 34.2154 22.6195 33.826C22.6328 33.5984 22.5491 33.5128 22.3471 33.4564C21.1302 33.0973 20.2805 32.283 19.6755 31.1701C19.5236 30.8903 19.4817 30.6209 19.7776 30.4195C20.0203 30.2556 20.2876 30.3735 20.4804 30.7243C20.9527 31.5992 21.6137 32.2391 22.6083 32.569V30.6376C22.6083 29.8025 22.5981 28.9673 22.6144 28.1321C22.6195 27.9056 22.543 27.8095 22.3431 27.7511C20.4049 27.181 19.8622 25.47 20.1835 23.7599C20.408 22.5677 21.223 21.8923 22.3349 21.5864C22.5512 21.5269 22.6246 21.4559 22.6134 21.2304C22.595 20.8545 22.6134 20.4756 22.6134 20.0987C22.6134 19.8085 22.745 19.6195 23.0357 19.6018C23.3499 19.583 23.507 19.7782 23.5233 20.0778C23.5488 20.4152 23.5488 20.7541 23.5233 21.0915C23.4917 21.411 23.6141 21.4987 23.9017 21.554C25.2095 21.8046 26.0868 22.5844 26.5356 23.8706C26.5748 23.9599 26.5853 24.0596 26.5657 24.1555C26.5461 24.2513 26.4974 24.3383 26.4264 24.4041C26.3632 24.4697 26.2813 24.5132 26.1925 24.5284C26.1036 24.5436 26.0124 24.5297 25.9317 24.4886C25.7481 24.4082 25.692 24.2297 25.6257 24.0606C25.2533 23.1001 24.5424 22.599 23.5304 22.4278V25.4553C23.5274 25.9251 23.5355 26.3939 23.5233 26.8626V26.8616ZM23.812 32.6557C24.6189 32.5346 25.2289 32.1097 25.4757 31.3058C25.7389 30.4487 25.7532 29.5843 25.1299 28.8399C25.0334 28.7365 24.9228 28.6478 24.8015 28.5768C24.421 28.3325 23.9946 28.2177 23.5274 28.107C23.5274 29.5895 23.5274 31.0438 23.5274 32.4991C23.5243 32.7611 23.6947 32.6744 23.812 32.6567V32.6557ZM22.4277 22.5374C21.7708 22.7546 21.2822 23.1523 21.1016 23.8581C20.9712 24.4047 20.9945 24.978 21.1689 25.5117C21.3811 26.2425 21.8993 26.6288 22.6195 26.8543C22.6195 25.4313 22.6195 24.0439 22.6195 22.6564C22.6134 22.4946 22.542 22.4946 22.4277 22.5374Z" fill="#F8F6E7"/>
<path d="M22.6128 22.6565C22.6128 24.0439 22.6128 25.4313 22.6128 26.8543C21.8926 26.6288 21.3744 26.2436 21.1622 25.5117C20.9878 24.9781 20.9645 24.4048 21.0949 23.8581C21.2806 23.1523 21.7692 22.7546 22.421 22.5374C22.5414 22.4946 22.6128 22.4946 22.6128 22.6565Z" fill="#FEFEFE"/>
<path d="M25.4758 31.3068C25.2289 32.1106 24.6189 32.5355 23.812 32.6566C23.6947 32.6744 23.5244 32.761 23.5254 32.5C23.5254 31.0447 23.5254 29.5905 23.5254 28.108C23.9926 28.2187 24.419 28.3335 24.7995 28.5778C24.9208 28.6488 25.0314 28.7374 25.1279 28.8409C25.7532 29.5853 25.739 30.4497 25.4758 31.3068Z" fill="#FEFEFE"/>
<path d="M25.4758 31.3068C25.2289 32.1106 24.6189 32.5355 23.812 32.6566C23.6947 32.6744 23.5244 32.761 23.5254 32.5C23.5254 31.0447 23.5254 29.5905 23.5254 28.108C23.9926 28.2187 24.419 28.3335 24.7995 28.5778C24.9208 28.6488 25.0314 28.7374 25.1279 28.8409C25.7532 29.5853 25.739 30.4497 25.4758 31.3068Z" fill="#F8F6E7"/>
<path d="M22.6108 26.8543C21.8907 26.6288 21.3724 26.2435 21.1603 25.5117C20.9858 24.978 20.9625 24.4047 21.093 23.858C21.2786 23.1523 21.7672 22.7546 22.4191 22.5374C22.5364 22.4988 22.6078 22.4904 22.6078 22.6564C22.6098 24.0439 22.6108 25.4313 22.6108 26.8543Z" fill="#F8F6E7"/>
</g>
<defs>
<clipPath id="clip0_405_7262">
<rect width="35" height="40" fill="white"/>
</clipPath>
</defs>
</svg>
