<svg width="553" height="128" viewBox="0 0 553 128" fill="none" xmlns="http://www.w3.org/2000/svg">
<path d="M544.095 0.0362968C542.522 0.150298 541.014 0.710975 539.748 1.65252C538.482 2.59406 537.51 3.8774 536.948 5.35195C536.385 6.82649 536.254 8.43105 536.571 9.97731C536.888 11.5236 537.638 12.9474 538.735 14.0817C541.442 16.947 542.933 20.751 542.894 24.6937V32.1898C542.894 39.2206 540.105 45.9639 535.14 50.9384C530.175 55.9128 523.439 58.7116 516.413 58.7199H37.283C29.3107 58.7185 21.6639 61.8838 16.0222 67.5205C10.3805 73.1573 7.20546 80.8044 7.19444 88.7821V101.501C7.21122 103.557 6.82062 105.595 6.04523 107.499C5.26983 109.402 4.12502 111.133 2.677 112.592C1.73132 113.521 1.00348 114.649 0.545932 115.894C0.088379 117.139 -0.0874927 118.47 0.0309893 119.791C0.223089 121.912 1.15867 123.897 2.67225 125.395C4.18584 126.892 6.1799 127.806 8.30171 127.974C9.53772 128.068 10.7798 127.905 11.9501 127.497C13.1205 127.088 14.1941 126.442 15.1036 125.599C16.0131 124.757 16.739 123.735 17.236 122.599C17.7329 121.462 17.9901 120.236 17.9916 118.995C17.9923 117.787 17.749 116.591 17.2765 115.479C16.8039 114.367 16.1118 113.362 15.2416 112.524C13.8166 111.116 12.6885 109.436 11.9242 107.584C11.1598 105.731 10.7748 103.744 10.7918 101.74V88.7821C10.7918 81.7504 13.5814 75.0063 18.5478 70.0317C23.5141 65.0571 30.2509 62.2589 37.2778 62.252H516.418C524.397 62.252 532.049 59.0804 537.691 53.4348C543.332 47.7892 546.502 40.1322 546.502 32.1481V24.3452C546.533 20.4628 548.049 16.7399 550.739 13.9412C551.863 12.7215 552.596 11.1925 552.843 9.55159C553.09 7.9107 552.84 6.23337 552.125 4.73627C551.409 3.23918 550.262 1.9911 548.831 1.15328C547.399 0.315451 545.75 -0.0736329 544.095 0.0362968ZM12.3929 118.995C12.3901 119.897 12.0311 120.76 11.3941 121.398C10.7571 122.035 9.89394 122.395 8.9931 122.397C8.09184 122.396 7.2279 122.037 6.59061 121.399C5.95333 120.762 5.59471 119.897 5.59333 118.995C5.59333 118.093 5.95151 117.228 6.58909 116.59C7.22667 115.952 8.09142 115.593 8.9931 115.593C9.89436 115.595 10.7583 115.953 11.3956 116.591C12.0329 117.229 12.3915 118.093 12.3929 118.995ZM544.916 11.231C544.219 11.231 543.538 11.0241 542.958 10.6366C542.379 10.249 541.927 9.69819 541.66 9.05372C541.393 8.40926 541.323 7.70011 541.459 7.01595C541.595 6.33179 541.931 5.70334 542.424 5.21009C542.917 4.71683 543.545 4.38093 544.229 4.24484C544.912 4.10875 545.621 4.17861 546.265 4.44555C546.909 4.7125 547.459 5.16455 547.847 5.74456C548.234 6.32456 548.441 7.00645 548.441 7.70402C548.441 8.63942 548.069 9.53651 547.409 10.1979C546.747 10.8594 545.851 11.231 544.916 11.231Z" fill="#1A4570"/>
</svg>
