<svg width="45" height="40" viewBox="0 0 45 40" fill="none" xmlns="http://www.w3.org/2000/svg">
<g clip-path="url(#clip0_405_7299)">
<path d="M0.000427256 17.9553C0.141907 17.6051 0.37366 17.3137 0.623636 17.0318C1.26854 16.3088 1.89869 15.5718 2.54185 14.8435C3.172 14.1336 3.99832 14.1328 4.63107 14.8435C5.30375 15.5998 5.96774 16.3648 6.63435 17.1272C7.25929 17.8415 7.33914 18.5058 6.8713 19.0739C6.40346 19.642 5.72992 19.6788 4.89493 19.1614C4.85389 19.9604 4.87363 20.7613 4.95395 21.5572C5.54765 27.1145 8.12553 31.506 12.757 34.5678C20.3952 39.6131 30.5079 37.7434 35.9744 30.3549C36.2209 30.0214 36.4787 29.7195 36.9058 29.6319C37.1638 29.5725 37.4337 29.5947 37.6788 29.6954C37.9239 29.796 38.1324 29.9704 38.2758 30.1947C38.4192 30.419 38.4907 30.6824 38.4806 30.9491C38.4704 31.2158 38.3791 31.4729 38.219 31.6854C37.1744 33.1672 35.9258 34.4914 34.511 35.6182C30.6216 38.7238 26.1785 40.1698 21.231 39.9825C12.3387 39.6429 4.63628 33.0894 2.75278 24.3144C2.43854 22.8083 2.28174 21.273 2.28494 19.7339C2.28494 19.5588 2.28494 19.3838 2.28494 19.2332C2.17818 19.1457 2.13651 19.2332 2.08617 19.2674C1.30499 19.7812 0.470875 19.5431 0.082891 18.6975C0.0572852 18.6491 0.0282789 18.6026 -0.00390625 18.5584L0.000427256 17.9553Z" fill="#F8F6E7"/>
<path d="M34.1492 22.4606C33.6536 22.1665 33.158 21.8733 32.6545 21.5949C32.4662 21.4907 32.3863 21.3726 32.4193 21.1494C32.5326 20.3725 32.5326 19.5831 32.4193 18.8062C32.3907 18.6066 32.4549 18.4919 32.6337 18.3939C33.1753 18.0945 33.7126 17.7864 34.2394 17.4626C34.9694 17.0144 35.1595 16.3107 34.7377 15.5605C33.9079 14.0865 33.0688 12.6183 32.2205 11.1559C31.8057 10.4417 31.0844 10.2623 30.3631 10.6693C29.8249 10.9739 29.2868 11.282 28.7608 11.6059C28.5716 11.7223 28.4414 11.7161 28.2669 11.5805C27.663 11.1109 26.9998 10.7245 26.2949 10.4312C26.071 10.3375 26.0059 10.2115 26.0128 9.97515C26.031 9.37994 26.0215 8.78385 26.0189 8.18863C26.0137 7.32033 25.5233 6.77501 24.6744 6.76625C22.976 6.74816 21.2768 6.74816 19.5768 6.76625C18.7505 6.77501 18.247 7.32383 18.241 8.15187C18.241 8.77685 18.2314 9.40094 18.2453 10.0259C18.2453 10.2307 18.1863 10.3384 17.9971 10.4172C17.2786 10.7149 16.6028 11.1082 15.9877 11.5866C15.8141 11.7249 15.6796 11.7135 15.4938 11.5989C14.9678 11.2741 14.4314 10.9642 13.8907 10.6631C13.1651 10.2596 12.4499 10.4469 12.035 11.1612C11.1942 12.6119 10.3609 14.0672 9.5352 15.5273C9.0908 16.315 9.28956 17.0328 10.056 17.4906C10.5629 17.7917 11.0689 18.098 11.5897 18.3746C11.8067 18.4902 11.8657 18.625 11.8319 18.8561C11.719 19.6037 11.719 20.3642 11.8319 21.1117C11.8709 21.3743 11.7824 21.5021 11.5593 21.6212C11.0524 21.8925 10.5594 22.191 10.0638 22.4842C9.28263 22.9438 9.0856 23.6563 9.53087 24.4432C10.3497 25.8904 11.176 27.3329 12.0098 28.7707C12.4577 29.5419 13.1442 29.7248 13.9193 29.2959C14.4592 28.9948 14.993 28.6832 15.5234 28.3611C15.5838 28.3127 15.6596 28.2883 15.7366 28.2923C15.8136 28.2964 15.8866 28.3286 15.9417 28.383C16.5665 28.8726 17.2545 29.2743 17.9866 29.5769C18.1984 29.6644 18.247 29.7913 18.2418 30.0067C18.2271 30.587 18.2358 31.1682 18.2375 31.7494C18.2375 32.7061 18.7496 33.2147 19.713 33.2164C20.5194 33.2164 21.3257 33.2164 22.1321 33.2164C22.9679 33.2164 23.8029 33.2164 24.6379 33.2164C25.4729 33.2164 26.0102 32.679 26.018 31.8317C26.0232 31.2067 26.0249 30.5826 26.018 29.9576C26.018 29.7756 26.0614 29.6749 26.2411 29.5988C26.9848 29.2859 27.685 28.8769 28.3242 28.3821C28.4761 28.2639 28.5846 28.2648 28.7417 28.3602C29.2584 28.6747 29.7792 28.9811 30.3041 29.2793C31.1182 29.7423 31.7961 29.5567 32.2726 28.734C33.0902 27.3206 33.9027 25.9038 34.7099 24.4834C35.1777 23.6493 34.9798 22.9525 34.1492 22.4606ZM22.1312 23.9119C21.3633 23.912 20.6126 23.6827 19.9739 23.2529C19.3352 22.8231 18.8371 22.212 18.5426 21.4969C18.248 20.7818 18.1702 19.9947 18.3189 19.235C18.4677 18.4753 18.8363 17.7771 19.3783 17.2285C19.9203 16.68 20.6114 16.3057 21.3642 16.153C22.1169 16.0003 22.8977 16.076 23.6079 16.3705C24.3181 16.665 24.9258 17.1651 25.3543 17.8077C25.7828 18.4503 26.0128 19.2065 26.0154 19.9808C26.0175 20.4965 25.9185 21.0074 25.7242 21.4844C25.5299 21.9613 25.2441 22.3949 24.8832 22.7602C24.5223 23.1254 24.0934 23.4152 23.6211 23.6128C23.1489 23.8105 22.6425 23.9121 22.1312 23.9119Z" fill="#F8F6E7"/>
<path d="M41.9653 20.8437C42.9739 20.1959 43.9122 20.4559 44.1943 21.396C44.2616 21.597 44.275 21.8123 44.233 22.0201C44.1911 22.228 44.0954 22.4209 43.9556 22.5794C43.1848 23.4819 42.4097 24.3808 41.6121 25.2553C41.0583 25.8592 40.2337 25.8277 39.6739 25.2036C38.93 24.3738 38.1983 23.5318 37.4727 22.6888C36.9693 22.1059 36.9571 21.3986 37.4241 20.8778C37.8685 20.3815 38.5594 20.3246 39.1852 20.7334L39.3658 20.8498C39.3909 19.5692 39.3588 18.3403 39.1357 17.1289C38.1471 11.7536 35.334 7.63347 30.6426 4.89637C23.1269 0.512809 13.4828 2.57504 8.29755 9.6178C8.0441 9.96268 7.77676 10.2804 7.33496 10.3662C7.07977 10.421 6.81411 10.3967 6.5729 10.2964C6.33168 10.1961 6.12622 10.0245 5.98353 9.80424C5.68755 9.34208 5.70143 8.77838 6.04342 8.29696C7.17477 6.69725 8.54098 5.28053 10.0951 4.09546C13.9237 1.17892 18.2488 -0.173437 23.0357 0.00862743C31.889 0.346498 39.6331 6.92359 41.4949 15.6461C41.8117 17.1667 41.9703 18.7165 41.9679 20.2703L41.9653 20.8437Z" fill="#F8F6E7"/>
</g>
<defs>
<clipPath id="clip0_405_7299">
<rect width="44.2553" height="40" fill="white"/>
</clipPath>
</defs>
</svg>
