<svg width="425" height="73" viewBox="0 0 425 73" fill="none" xmlns="http://www.w3.org/2000/svg">
<path d="M35.5547 48.2485L34.6841 48.7405L34.697 48.7633L34.711 48.7854L35.5547 48.2485ZM31.9547 44.3485L31.3603 45.1527L31.3718 45.1612L31.3836 45.1694L31.9547 44.3485ZM26.6547 41.4485L26.2723 42.3726L26.2833 42.377L26.6547 41.4485ZM20.4547 39.0485L20.7964 38.1087L20.7874 38.1054L20.7784 38.1023L20.4547 39.0485ZM13.2547 36.1485L12.8075 37.0429L12.8181 37.0482L12.8289 37.0533L13.2547 36.1485ZM7.35469 32.2485L6.67763 32.9844L6.68576 32.9919L6.69406 32.9992L7.35469 32.2485ZM3.35469 26.8485L2.44332 27.2601L2.44876 27.2721L2.45453 27.284L3.35469 26.8485ZM8.15469 5.14848L8.78996 5.92077L8.15469 5.14848ZM36.6547 1.44848L36.39 2.41281L36.401 2.41584L36.4122 2.41862L36.6547 1.44848ZM44.2547 4.34849L45.1856 4.71377L45.48 3.9635L44.8094 3.51644L44.2547 4.34849ZM41.1547 12.2485L40.6283 13.0987L41.6477 13.7298L42.0856 12.6138L41.1547 12.2485ZM34.8547 9.74848L34.5524 10.7017L34.5661 10.7061L34.58 10.71L34.8547 9.74848ZM20.0547 9.04848L19.8122 8.07834L20.0547 9.04848ZM15.8547 10.8485L16.4094 11.6805L16.4094 11.6805L15.8547 10.8485ZM12.9547 13.9485L12.0893 13.4474L12.0848 13.4551L12.0805 13.4628L12.9547 13.9485ZM13.0547 22.9485L13.9201 22.4474V22.4474L13.0547 22.9485ZM16.1547 26.3485L15.5547 27.1485L15.5678 27.1583L15.5812 27.1677L16.1547 26.3485ZM20.7547 28.9485L20.3356 29.8564L20.3421 29.8594L20.3485 29.8623L20.7547 28.9485ZM26.6547 31.3485L27.0261 30.42L27.016 30.416L27.0058 30.4122L26.6547 31.3485ZM34.8547 34.9485L34.4172 35.8478L34.4266 35.8522L34.8547 34.9485ZM41.3547 39.2485L40.6753 39.9822L40.6819 39.9884L40.6887 39.9944L41.3547 39.2485ZM45.6547 45.2485L44.7355 45.6424L44.7398 45.6521L45.6547 45.2485ZM40.4547 67.5485L39.8644 66.7413L39.8586 66.7456L40.4547 67.5485ZM14.1547 71.8485L14.3237 70.8629L14.3119 70.8609L14.3002 70.8591L14.1547 71.8485ZM8.05469 70.6485L7.7706 71.6073L7.78708 71.6122L7.80373 71.6165L8.05469 70.6485ZM3.35469 69.0485L2.9266 69.9522L2.95457 69.9655L2.9833 69.977L3.35469 69.0485ZM0.354687 67.5485L-0.585449 67.2077L-0.878143 68.0151L-0.124165 68.4264L0.354687 67.5485ZM3.25469 59.5485L3.74675 58.6779L2.71748 58.0962L2.31455 59.2077L3.25469 59.5485ZM10.2547 62.4485L9.93242 63.3951L10.2547 62.4485ZM21.7547 65.0485C26.9043 65.0485 30.9432 64.1733 33.7194 62.2738C36.5638 60.3276 37.9547 57.3955 37.9547 53.6485H35.9547C35.9547 56.8348 34.8123 59.1027 32.59 60.6232C30.2995 62.1903 26.7385 63.0485 21.7547 63.0485V65.0485ZM37.9547 53.6485C37.9547 51.3683 37.4548 49.3717 36.3984 47.7116L34.711 48.7854C35.5212 50.0586 35.9547 51.662 35.9547 53.6485H37.9547ZM36.4253 47.7564C35.4803 46.0845 34.1747 44.6747 32.5258 43.5276L31.3836 45.1694C32.8013 46.1556 33.8958 47.3458 34.6841 48.7405L36.4253 47.7564ZM32.5491 43.5443C30.9388 42.3541 29.0953 41.3477 27.0261 40.52L26.2833 42.377C28.214 43.1493 29.9039 44.0762 31.3603 45.1527L32.5491 43.5443ZM27.037 40.5245C25.0888 39.7183 23.0085 38.9131 20.7964 38.1087L20.1129 39.9883C22.3009 40.7839 24.3539 41.5787 26.2723 42.3725L27.037 40.5245ZM20.7784 38.1023C18.2775 37.2467 15.9117 36.2937 13.6805 35.2437L12.8289 37.0533C15.131 38.1366 17.5653 39.1169 20.131 39.9946L20.7784 38.1023ZM13.7019 35.2541C11.5016 34.1539 9.60897 32.9002 8.01532 31.4978L6.69406 32.9992C8.43374 34.5301 10.4744 35.8764 12.8075 37.0429L13.7019 35.2541ZM8.03175 31.5126C6.45898 30.0656 5.20081 28.3679 4.25485 26.4129L2.45453 27.284C3.50856 29.4624 4.91706 31.3647 6.67763 32.9844L8.03175 31.5126ZM4.26606 26.4369C3.40562 24.5316 2.95469 22.1799 2.95469 19.3485H0.954687C0.954687 22.3838 1.43709 25.032 2.44332 27.2601L4.26606 26.4369ZM2.95469 19.3485C2.95469 13.5359 4.92014 9.10401 8.78996 5.92077L7.51942 4.37619C3.12257 7.99295 0.954687 13.0277 0.954687 19.3485H2.95469ZM8.78996 5.92077C12.6894 2.71315 18.137 1.04848 25.2547 1.04848V-0.951519C17.839 -0.951519 11.8866 0.783811 7.51942 4.37619L8.78996 5.92077ZM25.2547 1.04848C29.3818 1.04848 33.0908 1.50715 36.39 2.41281L36.9194 0.484155C33.4186 -0.476859 29.5276 -0.951519 25.2547 -0.951519V1.04848ZM36.4122 2.41862C39.846 3.2771 42.2451 4.21059 43.7 5.18054L44.8094 3.51644C43.0643 2.35305 40.3967 1.3532 36.8972 0.478339L36.4122 2.41862ZM43.3238 3.9832L40.2238 11.8832L42.0856 12.6138L45.1856 4.71377L43.3238 3.9832ZM41.681 11.3982C40.1647 10.4595 37.9612 9.59605 35.1294 8.78696L34.58 10.71C37.3482 11.5009 39.3447 12.3041 40.6283 13.0987L41.681 11.3982ZM35.1569 8.79525C32.303 7.89035 28.9968 7.44849 25.2547 7.44849V9.44849C28.8459 9.44849 31.9397 9.87329 34.5524 10.7017L35.1569 8.79525ZM25.2547 7.44849C23.3168 7.44849 21.5011 7.65611 19.8122 8.07834L20.2972 10.0186C21.8083 9.64086 23.4592 9.44849 25.2547 9.44849V7.44849ZM19.8122 8.07834C18.1167 8.50221 16.608 9.14444 15.3 10.0164L16.4094 11.6805C17.5014 10.9525 18.7927 10.3948 20.2972 10.0186L19.8122 8.07834ZM15.3 10.0164C13.9705 10.9028 12.8982 12.0501 12.0893 13.4474L13.8201 14.4495C14.4778 13.3135 15.3389 12.3942 16.4094 11.6805L15.3 10.0164ZM12.0805 13.4628C11.3154 14.8401 10.9547 16.448 10.9547 18.2485H12.9547C12.9547 16.7156 13.2607 15.4569 13.8288 14.4341L12.0805 13.4628ZM10.9547 18.2485C10.9547 20.2435 11.3467 21.9941 12.1893 23.4495L13.9201 22.4474C13.296 21.3695 12.9547 19.9868 12.9547 18.2485H10.9547ZM12.1893 23.4495C12.9988 24.8478 14.1285 26.0789 15.5547 27.1485L16.7547 25.5485C15.5142 24.6181 14.5773 23.5825 13.9201 22.4474L12.1893 23.4495ZM15.5812 27.1677C16.9708 28.1404 18.5573 29.0357 20.3356 29.8564L21.1737 28.0405C19.4854 27.2613 18.0053 26.4232 16.7282 25.5293L15.5812 27.1677ZM20.3485 29.8623C22.1692 30.6715 24.1545 31.4789 26.3036 32.2848L27.0058 30.4122C24.8882 29.6181 22.9402 28.8255 21.1608 28.0347L20.3485 29.8623ZM26.2833 32.277C29.2647 33.4695 31.9756 34.6599 34.4172 35.8477L35.2922 34.0493C32.8004 32.8371 30.0446 31.6274 27.0261 30.42L26.2833 32.277ZM34.4266 35.8522C36.8809 37.0148 38.9597 38.3937 40.6753 39.9822L42.0341 38.5147C40.1497 36.7699 37.8952 35.2822 35.2828 34.0447L34.4266 35.8522ZM40.6887 39.9944C42.4446 41.5622 43.7923 43.4415 44.7355 45.6424L46.5738 44.8546C45.5171 42.3888 43.9981 40.2681 42.0207 38.5025L40.6887 39.9944ZM44.7398 45.6521C45.6688 47.758 46.1547 50.3787 46.1547 53.5485H48.1547C48.1547 50.185 47.6405 47.2723 46.5696 44.8448L44.7398 45.6521ZM46.1547 53.5485C46.1547 59.3318 44.0461 63.6831 39.8644 66.7413L41.045 68.3557C45.7967 64.8806 48.1547 59.8985 48.1547 53.5485H46.1547ZM39.8586 66.7456C35.6952 69.8365 29.7036 71.4485 21.7547 71.4485V73.4485C29.9391 73.4485 36.4141 71.7938 41.0508 68.3514L39.8586 66.7456ZM21.7547 71.4485C19.0695 71.4485 16.5934 71.252 14.3237 70.8629L13.9857 72.8341C16.3826 73.245 18.9732 73.4485 21.7547 73.4485V71.4485ZM14.3002 70.8591C12.0612 70.5299 10.064 70.1364 8.30565 69.6805L7.80373 71.6165C9.64534 72.0939 11.7148 72.5004 14.0092 72.8378L14.3002 70.8591ZM8.33878 69.6897C6.55992 69.1626 5.02367 68.639 3.72608 68.12L2.9833 69.977C4.35238 70.5246 5.94946 71.0677 7.7706 71.6073L8.33878 69.6897ZM3.78278 68.1447C2.52348 67.5482 1.54282 67.0575 0.83354 66.6706L-0.124165 68.4264C0.633219 68.8395 1.65257 69.3487 2.9266 69.9522L3.78278 68.1447ZM1.29482 67.8893L4.19482 59.8893L2.31455 59.2077L-0.585449 67.2077L1.29482 67.8893ZM2.76263 60.4191C4.37825 61.3322 6.78193 62.3226 9.93242 63.3951L10.577 61.5018C7.46078 60.441 5.19779 59.4981 3.74675 58.6779L2.76263 60.4191ZM9.93242 63.3951C13.2 64.5075 17.1493 65.0485 21.7547 65.0485V63.0485C17.2934 63.0485 13.5761 62.5228 10.577 61.5018L9.93242 63.3951ZM165.177 1.64848H166.177V0.648484H165.177V1.64848ZM165.177 10.0485V11.0485H166.177V10.0485H165.177ZM143.377 10.0485V9.04848H142.377V10.0485H143.377ZM143.377 70.9485V71.9485H144.377V70.9485H143.377ZM133.677 70.9485H132.677V71.9485H133.677V70.9485ZM133.677 10.0485H134.677V9.04848H133.677V10.0485ZM111.877 10.0485H110.877V11.0485H111.877V10.0485ZM111.877 1.64848V0.648484H110.877V1.64848H111.877ZM164.177 1.64848V10.0485H166.177V1.64848H164.177ZM165.177 9.04848H143.377V11.0485H165.177V9.04848ZM142.377 10.0485V70.9485H144.377V10.0485H142.377ZM143.377 69.9485H133.677V71.9485H143.377V69.9485ZM134.677 70.9485V10.0485H132.677V70.9485H134.677ZM133.677 9.04848H111.877V11.0485H133.677V9.04848ZM112.877 10.0485V1.64848H110.877V10.0485H112.877ZM111.877 2.64848H165.177V0.648484H111.877V2.64848ZM235.42 70.9485H234.42V71.9485H235.42V70.9485ZM235.42 1.64848V0.648484H234.42V1.64848H235.42ZM277.72 1.64848H278.72V0.648484H277.72V1.64848ZM277.72 9.94848V10.9485H278.72V9.94848H277.72ZM245.12 9.94848V8.94848H244.12V9.94848H245.12ZM245.12 30.5485H244.12V31.5485H245.12V30.5485ZM274.12 30.5485H275.12V29.5485H274.12V30.5485ZM274.12 38.6485V39.6485H275.12V38.6485H274.12ZM245.12 38.6485V37.6485H244.12V38.6485H245.12ZM245.12 62.6485H244.12V63.6485H245.12V62.6485ZM280.22 62.6485H281.22V61.6485H280.22V62.6485ZM280.22 70.9485V71.9485H281.22V70.9485H280.22ZM236.42 70.9485V1.64848H234.42V70.9485H236.42ZM235.42 2.64848H277.72V0.648484H235.42V2.64848ZM276.72 1.64848V9.94848H278.72V1.64848H276.72ZM277.72 8.94848H245.12V10.9485H277.72V8.94848ZM244.12 9.94848V30.5485H246.12V9.94848H244.12ZM245.12 31.5485H274.12V29.5485H245.12V31.5485ZM273.12 30.5485V38.6485H275.12V30.5485H273.12ZM274.12 37.6485H245.12V39.6485H274.12V37.6485ZM244.12 38.6485V62.6485H246.12V38.6485H244.12ZM245.12 63.6485H280.22V61.6485H245.12V63.6485ZM279.22 62.6485V70.9485H281.22V62.6485H279.22ZM280.22 69.9485H235.42V71.9485H280.22V69.9485ZM383.649 61.3485L382.726 61.7331L382.983 62.3485H383.649V61.3485ZM380.949 55.2485L380.031 55.6454L380.036 55.6557L380.041 55.666L380.949 55.2485ZM377.449 47.2485L378.364 46.8443L377.449 47.2485ZM373.349 38.4485L372.44 38.8638L372.445 38.8758L372.451 38.8877L373.349 38.4485ZM369.349 29.8485L368.442 30.269L368.446 30.2775L369.349 29.8485ZM365.749 22.5485L364.855 22.9957L364.86 23.0067L364.866 23.0176L365.749 22.5485ZM363.149 17.6485L364.011 17.1415L362.441 14.4722L362.154 17.5557L363.149 17.6485ZM361.349 43.2485L362.348 43.2995V43.2991L361.349 43.2485ZM360.149 70.9485V71.9485H361.114L361.149 70.9842L360.149 70.9485ZM350.649 70.9485L349.65 70.9041L349.604 71.9485H350.649V70.9485ZM351.549 52.8485L352.548 52.9033L352.548 52.9028L351.549 52.8485ZM352.649 34.8485L351.652 34.7701L351.652 34.7805L352.649 34.8485ZM354.049 17.5485L353.054 17.4537L353.053 17.4654L354.049 17.5485ZM355.749 1.64848V0.648484H354.862L354.756 1.52934L355.749 1.64848ZM364.249 1.64848L365.102 1.12547L364.809 0.648484H364.249V1.64848ZM370.049 12.0485L369.161 12.5075L370.049 12.0485ZM376.249 24.6485L375.344 25.0736L375.347 25.079L376.249 24.6485ZM382.249 37.7485L381.334 38.1508L381.336 38.1559L382.249 37.7485ZM387.549 49.6485L386.635 50.0546L387.549 52.1107L388.463 50.0546L387.549 49.6485ZM392.849 37.7485L393.762 38.1559L393.765 38.1508L392.849 37.7485ZM398.849 24.6485L399.752 25.079L399.754 25.0736L398.849 24.6485ZM405.049 12.0485L404.161 11.5895V11.5895L405.049 12.0485ZM410.849 1.64848V0.648484H410.29L409.997 1.12547L410.849 1.64848ZM419.349 1.64848L420.344 1.54751L420.253 0.648484H419.349V1.64848ZM424.449 70.9485V71.9485H425.498L425.448 70.9011L424.449 70.9485ZM414.949 70.9485L413.95 70.9842L413.984 71.9485H414.949V70.9485ZM413.749 43.2485L412.751 43.2991V43.2995L413.749 43.2485ZM411.949 17.6485L412.945 17.5557L412.657 14.4722L411.087 17.1415L411.949 17.6485ZM409.249 22.5485L408.366 22.0793L408.36 22.0902L408.355 22.1013L409.249 22.5485ZM405.749 29.8485L406.653 30.2776L406.657 30.2689L405.749 29.8485ZM401.649 38.4485L400.747 38.017L400.743 38.0256L401.649 38.4485ZM397.649 47.2485L396.735 46.8443V46.8443L397.649 47.2485ZM394.049 55.2485L393.141 54.831L393.136 54.8412L393.131 54.8516L394.049 55.2485ZM391.449 61.3485V62.3485H392.116L392.372 61.7331L391.449 61.3485ZM384.572 60.9639C383.899 59.3485 382.994 57.3032 381.858 54.831L380.041 55.666C381.171 58.1271 382.066 60.1485 382.726 61.7331L384.572 60.9639ZM381.867 54.8516C380.799 52.3821 379.631 49.713 378.364 46.8443L376.535 47.6526C377.8 50.5173 378.966 53.1815 380.031 55.6454L381.867 54.8516ZM378.364 46.8443C377.092 43.9651 375.72 41.0201 374.248 38.0093L372.451 38.8877C373.912 41.8769 375.273 44.7985 376.535 47.6526L378.364 46.8443ZM374.259 38.0332C372.857 34.9626 371.522 32.0913 370.253 29.4194L368.446 30.2775C369.71 32.939 371.041 35.8011 372.44 38.8638L374.259 38.0332ZM370.257 29.428C368.984 26.6821 367.776 24.232 366.632 22.0793L364.866 23.0176C365.989 25.1316 367.181 27.5482 368.442 30.2689L370.257 29.428ZM366.644 22.1013C365.574 19.9611 364.695 18.304 364.011 17.1415L362.287 18.1555C362.937 19.2596 363.792 20.8692 364.855 22.9957L366.644 22.1013ZM362.154 17.5557C361.419 25.4384 360.818 33.986 360.35 43.1978L362.348 43.2991C362.814 34.111 363.413 25.5919 364.145 17.7413L362.154 17.5557ZM360.351 43.1975C359.884 52.336 359.483 61.5745 359.15 70.9128L361.149 70.9842C361.482 61.6559 361.882 52.4276 362.348 43.2995L360.351 43.1975ZM360.149 69.9485H350.649V71.9485H360.149V69.9485ZM351.648 70.9929C351.915 64.9964 352.215 58.9666 352.548 52.9033L350.551 52.7936C350.217 58.8637 349.917 64.9006 349.65 70.9041L351.648 70.9929ZM352.548 52.9028C352.881 46.7738 353.247 40.7784 353.647 34.9165L351.652 34.7805C351.251 40.6519 350.884 46.6565 350.551 52.7942L352.548 52.9028ZM353.646 34.9269C354.113 28.995 354.579 23.2299 355.046 17.6315L353.053 17.4654C352.586 23.0671 352.119 28.8353 351.652 34.7701L353.646 34.9269ZM355.045 17.6433C355.577 12.0505 356.143 6.75866 356.742 1.76763L354.756 1.52934C354.155 6.53831 353.588 11.8465 353.054 17.4537L355.045 17.6433ZM355.749 2.64848H364.249V0.648484H355.749V2.64848ZM363.397 2.1715C365.181 5.07874 367.102 8.52306 369.161 12.5075L370.938 11.5895C368.863 7.5739 366.918 4.08489 365.102 1.12547L363.397 2.1715ZM369.161 12.5075C371.221 16.4955 373.282 20.6841 375.344 25.0736L377.154 24.2233C375.083 19.8128 373.011 15.6015 370.938 11.5895L369.161 12.5075ZM375.347 25.079C377.409 29.4029 379.405 33.7602 381.334 38.1508L383.165 37.3462C381.227 32.9368 379.223 28.5607 377.152 24.218L375.347 25.079ZM381.336 38.1559C383.269 42.4889 385.036 46.4551 386.635 50.0546L388.463 49.2423C386.863 45.6418 385.096 41.6747 383.162 37.341L381.336 38.1559ZM388.463 50.0546C390.063 46.4551 391.829 42.4889 393.762 38.1559L391.936 37.341C390.003 41.6747 388.236 45.6418 386.635 49.2423L388.463 50.0546ZM393.765 38.1508C395.694 33.7602 397.69 29.4029 399.752 25.079L397.947 24.218C395.875 28.5607 393.871 32.9368 391.934 37.3462L393.765 38.1508ZM399.754 25.0736C401.816 20.6841 403.877 16.4955 405.938 12.5075L404.161 11.5895C402.088 15.6015 400.016 19.8128 397.944 24.2233L399.754 25.0736ZM405.938 12.5075C407.996 8.52306 409.918 5.07874 411.702 2.1715L409.997 1.12547C408.181 4.08489 406.236 7.5739 404.161 11.5895L405.938 12.5075ZM410.849 2.64848H419.349V0.648484H410.849V2.64848ZM418.354 1.74946C420.619 24.0639 422.318 47.146 423.45 70.9959L425.448 70.9011C424.314 47.0176 422.613 23.8997 420.344 1.54751L418.354 1.74946ZM424.449 69.9485H414.949V71.9485H424.449V69.9485ZM415.949 70.9128C415.615 61.5745 415.215 52.336 414.748 43.1975L412.751 43.2995C413.217 52.4276 413.617 61.6559 413.95 70.9842L415.949 70.9128ZM414.748 43.1978C414.281 33.986 413.68 25.4384 412.945 17.5557L410.954 17.7413C411.685 25.5919 412.284 34.111 412.751 43.2991L414.748 43.1978ZM411.087 17.1415C410.41 18.2935 409.502 19.9419 408.366 22.0793L410.132 23.0176C411.263 20.8884 412.156 19.2701 412.811 18.1555L411.087 17.1415ZM408.355 22.1013C407.283 24.2454 406.112 26.6879 404.842 29.428L406.657 30.2689C407.92 27.5424 409.082 25.1182 410.144 22.9957L408.355 22.1013ZM404.846 29.4194C403.58 32.0852 402.213 34.951 400.747 38.017L402.551 38.8799C404.018 35.8126 405.385 32.9451 406.652 30.2775L404.846 29.4194ZM400.743 38.0256C399.34 41.0315 398.004 43.971 396.735 46.8443L398.564 47.6526C399.828 44.7926 401.158 41.8655 402.555 38.8714L400.743 38.0256ZM396.735 46.8443C395.47 49.7072 394.272 52.3694 393.141 54.831L394.958 55.666C396.094 53.1943 397.296 50.5231 398.564 47.6526L396.735 46.8443ZM393.131 54.8516C392.064 57.3204 391.195 59.3582 390.526 60.9639L392.372 61.7331C393.037 60.1388 393.901 58.1099 394.967 55.6454L393.131 54.8516ZM391.449 60.3485H383.649V62.3485H391.449V60.3485Z" fill="url(#paint0_linear_405_1079)"/>
<defs>
<linearGradient id="paint0_linear_405_1079" x1="214.431" y1="-24.0515" x2="214.057" y2="170.276" gradientUnits="userSpaceOnUse">
<stop stop-color="#D2D2D2"/>
<stop offset="1" stop-color="#FDFDFD" stop-opacity="0.23"/>
</linearGradient>
</defs>
</svg>
