<svg width="44" height="40" viewBox="0 0 44 40" fill="none" xmlns="http://www.w3.org/2000/svg">
<g clip-path="url(#clip0_405_7276)">
<path d="M36.1254 26.9606C30.0527 26.955 23.9788 26.955 17.9036 26.9606C14.4757 26.9606 11.0469 26.94 7.61805 26.9671C3.61574 26.9988 0.569834 30.8646 1.4208 34.792C2.0877 37.872 4.6702 39.9906 7.80305 39.9953C12.5074 40.0027 17.2121 40.0027 21.917 39.9953C26.7139 39.9953 31.5108 40.0139 36.3076 39.9897C39.7494 39.9719 42.5974 37.0675 42.6362 33.5983C42.6741 29.9061 39.7975 26.9643 36.1254 26.9606ZM35.6574 35.5256C35.2554 35.5332 34.8603 35.4201 34.5221 35.2009C34.1839 34.9816 33.9178 34.6659 33.7576 34.2939C33.5973 33.9219 33.5502 33.5103 33.622 33.1112C33.6939 32.7121 33.8815 32.3435 34.1612 32.0521C34.4409 31.7607 34.8 31.5597 35.193 31.4744C35.5861 31.3892 35.9953 31.4236 36.3689 31.5734C36.7426 31.7231 37.0637 31.9813 37.2917 32.3154C37.5198 32.6495 37.6443 33.0443 37.6497 33.4499C37.6557 33.991 37.4497 34.5126 37.0767 34.9013C36.7036 35.29 36.1935 35.5143 35.6574 35.5256Z" fill="#F8F6E7"/>
<path d="M0.000544368 11.9578C-0.0114801 11.5453 0.177212 11.2168 0.416777 10.9032C4.48661 5.55903 9.74594 1.9807 16.2817 0.656322C26.9789 -1.51457 35.9344 1.74177 43.0733 10.0716C43.409 10.4636 43.6282 10.8967 43.5357 11.4277C43.4192 12.0418 43.0733 12.4656 42.4563 12.628C41.8227 12.7959 41.3001 12.5888 40.8978 12.0894C39.8573 10.7821 38.6877 9.58499 37.4069 8.5167C33.6867 5.43676 29.4523 3.55053 24.6554 3.12028C15.7009 2.31576 8.43897 5.57769 2.8263 12.6401C2.26023 13.3522 1.73207 13.5893 1.05223 13.3802C0.74664 13.2922 0.478175 13.1054 0.28815 12.8484C0.0981245 12.5914 -0.00292868 12.2785 0.000544368 11.9578Z" fill="#F8F6E7"/>
<path d="M23.0449 6.86255C28.9776 7.06882 34.5292 9.9005 38.6241 15.5526C39.2151 16.3684 39.1013 17.2961 38.378 17.8038C37.6797 18.2938 36.7917 18.0782 36.2238 17.2839C33.3388 13.253 29.478 10.7097 24.5988 10.062C17.6089 9.13424 11.9925 11.6747 7.8228 17.4193C7.42692 17.9643 7.00883 18.4039 6.29199 18.347C5.13671 18.2537 4.54844 16.9918 5.20331 15.9932C6.36947 14.218 7.80531 12.6391 9.45813 11.3145C13.0248 8.44079 17.5053 6.85975 23.0449 6.86255Z" fill="#F8F6E7"/>
<path d="M22.6316 13.7449C27.4978 14.0062 31.5686 16.4561 34.1307 21.3458C34.4193 21.8974 34.4314 22.4499 34.0817 22.9744C33.9411 23.1996 33.7393 23.3792 33.5004 23.4919C33.2615 23.6046 32.9954 23.6456 32.7341 23.61C32.1264 23.5512 31.7351 23.1966 31.4706 22.6571C30.5533 20.763 29.0906 19.1924 27.274 18.151C22.0304 15.0954 15.2893 17.1897 12.642 22.6944C12.5745 22.8335 12.5153 22.9744 12.445 23.1144C12.0528 23.8769 11.2361 24.1831 10.5026 23.8433C9.76909 23.5036 9.43518 22.644 9.78481 21.8442C10.7773 19.5397 12.3961 17.5658 14.454 16.151C16.7405 14.5606 19.2897 13.7878 22.6316 13.7449Z" fill="#F8F6E7"/>
</g>
<defs>
<clipPath id="clip0_405_7276">
<rect width="43.5556" height="40" fill="white"/>
</clipPath>
</defs>
</svg>
