<svg xmlns="http://www.w3.org/2000/svg" xmlns:xlink="http://www.w3.org/1999/xlink" width="39" height="39" viewBox="0 0 39 39">
  <defs>
    <linearGradient id="linear-gradient" x1="1" x2="0.021" y2="1" gradientUnits="objectBoundingBox">
      <stop offset="0" stop-color="#0f75c9"/>
      <stop offset="1" stop-color="#40bf8e"/>
    </linearGradient>
  </defs>
  <g id="Group_44" data-name="Group 44" transform="translate(0.011)">
    <circle id="Ellipse_4" data-name="Ellipse 4" cx="19.5" cy="19.5" r="19.5" transform="translate(-0.011)" fill="url(#linear-gradient)"/>
    <path id="Path_48609" data-name="Path 48609" d="M7.5,9h-4a.5.5,0,0,0-.5.5H3v12a.5.5,0,0,0,.5.5h4a.5.5,0,0,0,.5-.5H8V9.5A.5.5,0,0,0,7.5,9ZM7,21H4V10H7ZM18,9a4.928,4.928,0,0,0-3,1.019V9.5a.5.5,0,0,0-.5-.5h-4a.5.5,0,0,0-.5.5h0v12a.5.5,0,0,0,.5.5h4a.5.5,0,0,0,.5-.5h0V16a1.5,1.5,0,0,1,3,0v5.5a.5.5,0,0,0,.5.5h4a.5.5,0,0,0,.5-.5h0V14A5.006,5.006,0,0,0,18,9Zm4,12H19V16a2.5,2.5,0,0,0-5,0v5H11V10h3v1.2a.5.5,0,0,0,.335.472.494.494,0,0,0,.556-.159A3.983,3.983,0,0,1,22,14ZM5.868,2a2.73,2.73,0,0,0-.353,0A2.739,2.739,0,0,0,2.6,4.546q-.006.091-.006.182A2.71,2.71,0,0,0,5.275,7.462q.092,0,.183,0h.028A2.734,2.734,0,1,0,5.868,2ZM5.833,6.46a1.736,1.736,0,0,1-.347,0H5.458A1.736,1.736,0,1,1,5.515,3a1.737,1.737,0,1,1,.319,3.46Z" transform="translate(6.4 7.007)" fill="#fff"/>
  </g>
</svg>
