<svg width="18" height="18" viewBox="0 0 18 18" fill="none" xmlns="http://www.w3.org/2000/svg">
<path d="M13.125 6.24995C13.4897 6.24995 13.8394 6.10508 14.0973 5.84722C14.3551 5.58935 14.5 5.23962 14.5 4.87495C14.5 4.51027 14.3551 4.16054 14.0973 3.90267C13.8394 3.64481 13.4897 3.49995 13.125 3.49995C12.7603 3.49995 12.4106 3.64481 12.1527 3.90267C11.8949 4.16054 11.75 4.51027 11.75 4.87495C11.75 5.23962 11.8949 5.58935 12.1527 5.84722C12.4106 6.10508 12.7603 6.24995 13.125 6.24995ZM1.55712 11.9369C1.30111 11.6829 1.09793 11.3806 0.959267 11.0476C0.820608 10.7146 0.749222 10.3575 0.749222 9.99682C0.749222 9.63612 0.820608 9.27899 0.959267 8.94601C1.09793 8.61303 1.30111 8.31079 1.55712 8.0567L8.07462 1.5722C8.59017 1.06005 9.28668 0.771569 10.0134 0.769195L14.4807 0.749946C14.8447 0.747394 15.2055 0.817097 15.5422 0.955017C15.879 1.09294 16.1851 1.29633 16.4426 1.5534C16.7002 1.81048 16.9042 2.11612 17.0428 2.45262C17.1814 2.78912 17.2518 3.14978 17.25 3.5137L17.217 8.13645C17.2114 8.85832 16.9208 9.54875 16.4085 10.0573L9.98725 16.4469C9.46902 16.9614 8.76841 17.2501 8.03818 17.2501C7.30796 17.2501 6.60735 16.9614 6.08912 16.4469L1.55712 11.9369ZM2.532 9.02745C2.4042 9.15447 2.30278 9.3055 2.23357 9.47187C2.16437 9.63823 2.12874 9.81664 2.12874 9.99682C2.12874 10.177 2.16437 10.3554 2.23357 10.5218C2.30278 10.6881 2.4042 10.8392 2.532 10.9662L7.064 15.4762C7.603 16.0124 8.47475 16.0124 9.01375 15.4762L15.435 9.08657C15.6905 8.83223 15.8353 8.48732 15.8379 8.12682L15.8709 3.5027C15.8716 3.32097 15.8363 3.1409 15.767 2.9729C15.6977 2.8049 15.5958 2.6523 15.4672 2.52393C15.3386 2.39556 15.1858 2.29396 15.0176 2.225C14.8495 2.15605 14.6693 2.1211 14.4876 2.1222L10.0189 2.14007C9.65553 2.14126 9.30727 2.2855 9.0495 2.54157L2.532 9.02745Z" fill="url(#paint0_linear_77_1756)"/>
<defs>
<linearGradient id="paint0_linear_77_1756" x1="3.81525" y1="3.06394" x2="19.4495" y2="8.46844" gradientUnits="userSpaceOnUse">
<stop stop-color="#FEE1AF"/>
<stop offset="1" stop-color="#C79E4B"/>
</linearGradient>
</defs>
</svg>
