<svg id="Group_43" data-name="Group 43" xmlns="http://www.w3.org/2000/svg" xmlns:xlink="http://www.w3.org/1999/xlink" width="39" height="39" viewBox="0 0 39 39">
  <defs>
    <linearGradient id="linear-gradient" x1="1" x2="0.021" y2="1" gradientUnits="objectBoundingBox">
      <stop offset="0" stop-color="#0f75c9"/>
      <stop offset="1" stop-color="#40bf8e"/>
    </linearGradient>
  </defs>
  <circle id="Ellipse_5" data-name="Ellipse 5" cx="19.5" cy="19.5" r="19.5" fill="url(#linear-gradient)"/>
  <path id="Контур_1979" data-name="Контур 1979" d="M25693.188,264.826a4.244,4.244,0,0,0-.6,2.1.832.832,0,0,1-.367.7.972.972,0,0,1-.844.085,4.12,4.12,0,0,0-.609-.214,13.692,13.692,0,0,1-1.809-.779,11.1,11.1,0,0,1-2.3-1.553,2.124,2.124,0,0,0,.238.885,4.042,4.042,0,0,0,1.816,1.844.893.893,0,0,1,.359.761.709.709,0,0,1-.48.726h0v.03c0,.017-.121.037-.121.063a5.6,5.6,0,0,1-.6.174,5.515,5.515,0,0,1-.848.176,2.574,2.574,0,0,0,1.086,1.353,6.636,6.636,0,0,0,.727.443c.121.033.121.066.242.1a4.517,4.517,0,0,0,.48.293,1.064,1.064,0,0,1,.367.858,4.428,4.428,0,0,1-.121.677,1.287,1.287,0,0,1-.488.405,3.242,3.242,0,0,1-1.086.656,5.6,5.6,0,0,1-1.812.449c.121.031.121.06.242.09a5.191,5.191,0,0,0,2.535.279,12.7,12.7,0,0,0,6.652-2.732,9.718,9.718,0,0,0,2.172-4.252,6.58,6.58,0,0,0,.121-1.384V266.6a1,1,0,0,1,.121-.589l-.121.592h0l.121-.593,1.57.725h0v.363a4.829,4.829,0,0,1-.238,1.7,10.788,10.788,0,0,1-2.539,5.064c0,.029,0,.054-.121.077a13.55,13.55,0,0,1-7.492,3.189,7.316,7.316,0,0,1-3.5-.412,3.057,3.057,0,0,1-1.934-2.457.819.819,0,0,1,.242-.724.923.923,0,0,1,.723-.226,4.91,4.91,0,0,0,2.66-.262c0-.025.117-.078.117-.078s-.363-.242-.6-.394a3.986,3.986,0,0,1-1.934-3.531.949.949,0,0,1,.969-.846h.117a4.087,4.087,0,0,1-.965-1.464,4.415,4.415,0,0,1,0-3.528.944.944,0,0,1,.609-.518,1.069,1.069,0,0,1,.84.232,13.27,13.27,0,0,0,2.9,2.3,8.038,8.038,0,0,0,1.328.542,5.993,5.993,0,0,1,.73-1.835,4.351,4.351,0,0,1,3.742-2.1,3.6,3.6,0,0,1,2.414.967c.125.047.125.088.242.121,0,.092.121.151.242.193a4.829,4.829,0,0,1,.969-.371,1.428,1.428,0,0,1,1.211.232,1.171,1.171,0,0,1,.48,1.088,1.953,1.953,0,0,1-.238.834,5.253,5.253,0,0,1-.727,1.419c-.121.167-.121.316-.242.43h0l-1.57-.725h0v-.037c0-.028.121-.07.121-.121.117-.106.117-.256.238-.431.121-.242.363-.527.484-.79-.121.024-.121.051-.238.08v.016a1.472,1.472,0,0,1-1.328-.091,2.342,2.342,0,0,1-.605-.467c0-.027-.121-.052-.121-.074a1.813,1.813,0,0,0-1.332-.57,2.658,2.658,0,0,0-2.293,1.306Z" transform="translate(-25673.117 -249.735)" fill="#fff" fill-rule="evenodd"/>
</svg>
